<svg width="193" height="24" viewBox="0 0 193 24" fill="none" xmlns="http://www.w3.org/2000/svg">
<path d="M48.96 14.7594C48.96 12.9198 49.3022 11.3048 49.9866 9.91444C50.6924 8.52406 51.6442 7.45454 52.842 6.70588C54.0397 5.95722 55.3765 5.58289 56.8523 5.58289C58.1142 5.58289 59.2158 5.83957 60.1568 6.35294C61.1193 6.86631 61.8572 7.54011 62.3706 8.37433V5.83957H67.8567V23.7433H62.3706V21.2086C61.8358 22.0428 61.0872 22.7166 60.1248 23.2299C59.1837 23.7433 58.0822 24 56.8202 24C55.3658 24 54.0397 23.6257 52.842 22.877C51.6442 22.107 50.6924 21.0267 49.9866 19.6364C49.3022 18.2246 48.96 16.5989 48.96 14.7594ZM62.3706 14.7914C62.3706 13.4225 61.9856 12.3422 61.2156 11.5508C60.467 10.7594 59.5473 10.3636 58.4565 10.3636C57.3656 10.3636 56.4352 10.7594 55.6653 11.5508C54.9167 12.3209 54.5424 13.3904 54.5424 14.7594C54.5424 16.1283 54.9167 17.2193 55.6653 18.0321C56.4352 18.8235 57.3656 19.2193 58.4565 19.2193C59.5473 19.2193 60.467 18.8235 61.2156 18.0321C61.9856 17.2406 62.3706 16.1604 62.3706 14.7914Z" fill="white"/>
<path d="M77.3119 8.82353C77.9535 7.83957 78.7556 7.06952 79.7181 6.51337C80.6805 5.93583 81.75 5.64706 82.9263 5.64706V11.4545H81.4184C80.0496 11.4545 79.0229 11.754 78.3385 12.3529C77.6541 12.9305 77.3119 13.9572 77.3119 15.4332V23.7433H71.8257V5.83957H77.3119V8.82353Z" fill="white"/>
<path d="M91.0348 0V23.7433H85.5486V0H91.0348Z" fill="white"/>
<path d="M111.886 14.5027C111.886 15.016 111.854 15.5508 111.79 16.107H99.3738C99.4593 17.2193 99.8122 18.0749 100.432 18.6738C101.074 19.2513 101.855 19.5401 102.775 19.5401C104.143 19.5401 105.095 18.9626 105.63 17.8075H111.469C111.17 18.984 110.624 20.0428 109.833 20.984C109.063 21.9251 108.09 22.6631 106.913 23.1979C105.737 23.7326 104.421 24 102.967 24C101.213 24 99.6518 23.6257 98.283 22.877C96.9141 22.1283 95.8447 21.0588 95.0747 19.6684C94.3047 18.2781 93.9197 16.6524 93.9197 14.7914C93.9197 12.9305 94.294 11.3048 95.0426 9.91444C95.8126 8.52406 96.882 7.45454 98.2509 6.70588C99.6197 5.95722 101.192 5.58289 102.967 5.58289C104.7 5.58289 106.239 5.94652 107.587 6.6738C108.934 7.40107 109.982 8.4385 110.731 9.78609C111.501 11.1337 111.886 12.7059 111.886 14.5027ZM106.272 13.0588C106.272 12.1176 105.951 11.369 105.309 10.8128C104.667 10.2567 103.865 9.97861 102.903 9.97861C101.983 9.97861 101.202 10.246 100.561 10.7807C99.9406 11.3155 99.5556 12.0749 99.4059 13.0588H106.272Z" fill="white"/>
<path d="M125.368 23.7433L121.935 18.7701L119.047 23.7433H113.112L119.015 14.5989L112.952 5.83957H119.111L122.544 10.7807L125.432 5.83957H131.367L125.368 14.8556L131.527 23.7433H125.368Z" fill="white"/>
<path d="M132.551 14.7594C132.551 12.9198 132.893 11.3048 133.577 9.91444C134.283 8.52406 135.235 7.45454 136.433 6.70588C137.63 5.95722 138.967 5.58289 140.443 5.58289C141.619 5.58289 142.689 5.82888 143.651 6.32085C144.635 6.81283 145.405 7.47593 145.961 8.31016V0H151.447V23.7433H145.961V21.1765C145.448 22.0321 144.71 22.7166 143.747 23.2299C142.806 23.7433 141.705 24 140.443 24C138.967 24 137.63 23.6257 136.433 22.877C135.235 22.107 134.283 21.0267 133.577 19.6364C132.893 18.2246 132.551 16.5989 132.551 14.7594ZM145.961 14.7914C145.961 13.4225 145.576 12.3422 144.806 11.5508C144.058 10.7594 143.138 10.3636 142.047 10.3636C140.956 10.3636 140.026 10.7594 139.256 11.5508C138.507 12.3209 138.133 13.3904 138.133 14.7594C138.133 16.1283 138.507 17.2193 139.256 18.0321C140.026 18.8235 140.956 19.2193 142.047 19.2193C143.138 19.2193 144.058 18.8235 144.806 18.0321C145.576 17.2406 145.961 16.1604 145.961 14.7914Z" fill="white"/>
<path d="M172.292 14.5027C172.292 15.016 172.26 15.5508 172.196 16.107H159.78C159.865 17.2193 160.218 18.0749 160.838 18.6738C161.48 19.2513 162.261 19.5401 163.18 19.5401C164.549 19.5401 165.501 18.9626 166.036 17.8075H171.875C171.575 18.984 171.03 20.0428 170.239 20.984C169.469 21.9251 168.495 22.6631 167.319 23.1979C166.143 23.7326 164.827 24 163.373 24C161.619 24 160.058 23.6257 158.689 22.877C157.32 22.1283 156.25 21.0588 155.481 19.6684C154.711 18.2781 154.326 16.6524 154.326 14.7914C154.326 12.9305 154.7 11.3048 155.448 9.91444C156.218 8.52406 157.288 7.45454 158.657 6.70588C160.026 5.95722 161.598 5.58289 163.373 5.58289C165.105 5.58289 166.645 5.94652 167.993 6.6738C169.34 7.40107 170.388 8.4385 171.137 9.78609C171.907 11.1337 172.292 12.7059 172.292 14.5027ZM166.677 13.0588C166.677 12.1176 166.357 11.369 165.715 10.8128C165.073 10.2567 164.271 9.97861 163.309 9.97861C162.389 9.97861 161.608 10.246 160.967 10.7807C160.346 11.3155 159.961 12.0749 159.812 13.0588H166.677Z" fill="white"/>
<path d="M183.239 18.6096L187.121 5.83957H192.96L186.608 23.7433H179.838L173.486 5.83957H179.357L183.239 18.6096Z" fill="white"/>
<path fill-rule="evenodd" clip-rule="evenodd" d="M5.91181 3.78947C8.72434 -1.26316 15.7557 -1.26316 18.5682 3.78947L23.4901 12.6316C26.2787 17.6411 22.8465 23.8923 17.3055 23.9986C16.3245 22.14 14.4238 20.88 12.24 20.88C10.0562 20.88 8.15553 22.14 7.17451 23.9986C1.63346 23.8923 -1.79865 17.6411 0.989877 12.6316L5.91181 3.78947Z" fill="white"/>
</svg>
