<svg width="181" height="24" viewBox="0 0 181 24" fill="none" xmlns="http://www.w3.org/2000/svg">
<path fill-rule="evenodd" clip-rule="evenodd" d="M5.91169 3.7894C8.72417 -1.26313 15.7554 -1.26313 18.5678 3.7894L23.4897 12.6313C26.2781 17.6407 22.8461 23.8918 17.3052 23.9982C16.3242 22.1396 14.4235 20.8796 12.2398 20.8796C10.056 20.8796 8.15537 22.1396 7.17437 23.9982C1.63343 23.8918 -1.79861 17.6407 0.989857 12.6313L5.91169 3.7894Z" fill="white"/>
<path d="M36.48 14.7591C36.48 12.9195 36.8222 11.3046 37.5066 9.91424C38.2124 8.5239 39.1642 7.4544 40.3619 6.70575C41.5597 5.9571 42.8964 5.58278 44.3722 5.58278C45.6341 5.58278 46.7356 5.83946 47.6766 6.35282C48.6391 6.86618 49.377 7.53996 49.8903 8.37417V5.83946H55.3763V23.7428H49.8903V21.2081C49.3556 22.0423 48.607 22.7161 47.6446 23.2295C46.7035 23.7429 45.602 23.9995 44.3401 23.9995C42.8857 23.9995 41.5597 23.6252 40.3619 22.8766C39.1642 22.1065 38.2124 21.0263 37.5066 19.636C36.8222 18.2242 36.48 16.5986 36.48 14.7591ZM49.8903 14.7912C49.8903 13.4222 49.5053 12.342 48.7354 11.5506C47.9868 10.7591 47.0671 10.3634 45.9763 10.3634C44.8855 10.3634 43.9551 10.7591 43.1851 11.5506C42.4366 12.3206 42.0623 13.3901 42.0623 14.7591C42.0623 16.128 42.4366 17.2189 43.1851 18.0317C43.9551 18.8232 44.8855 19.2189 45.9763 19.2189C47.0671 19.2189 47.9868 18.8232 48.7354 18.0317C49.5053 17.2403 49.8903 16.1601 49.8903 14.7912Z" fill="white"/>
<path d="M64.8313 8.82336C65.4729 7.83942 66.275 7.06938 67.2375 6.51324C68.1999 5.93571 69.2693 5.64695 70.4457 5.64695V11.4543H68.9378C67.569 11.4543 66.5424 11.7538 65.8579 12.3527C65.1735 12.9302 64.8313 13.9569 64.8313 15.4329V23.7428H59.3453V5.83946H64.8313V8.82336Z" fill="white"/>
<path d="M78.5539 0V23.7428H73.0679V0H78.5539Z" fill="white"/>
<path d="M99.4047 14.5024C99.4047 15.0157 99.3727 15.5505 99.3085 16.1066H86.8927C86.9783 17.2189 87.3312 18.0745 87.9514 18.6734C88.5931 19.251 89.3737 19.5397 90.2934 19.5397C91.6622 19.5397 92.614 18.9622 93.1487 17.8071H98.9877C98.6882 18.9836 98.1428 20.0424 97.3515 20.9835C96.5815 21.9247 95.6084 22.6627 94.432 23.1974C93.2557 23.7322 91.9403 23.9995 90.4859 23.9995C88.7321 23.9995 87.1708 23.6252 85.8019 22.8766C84.4331 22.1279 83.3637 21.0584 82.5937 19.6681C81.8237 18.2777 81.4387 16.6521 81.4387 14.7912C81.4387 12.9302 81.813 11.3046 82.5616 9.91424C83.3316 8.5239 84.401 7.4544 85.7698 6.70575C87.1387 5.9571 88.7107 5.58278 90.4859 5.58278C92.2183 5.58278 93.7583 5.94641 95.1057 6.67367C96.4532 7.40092 97.5012 8.43834 98.2498 9.7859C99.0197 11.1335 99.4047 12.7056 99.4047 14.5024ZM93.7904 13.0586C93.7904 12.1174 93.4695 11.3688 92.8279 10.8126C92.1863 10.2565 91.3842 9.97841 90.4217 9.97841C89.502 9.97841 88.7214 10.2458 88.0797 10.7805C87.4595 11.3153 87.0745 12.0746 86.9248 13.0586H93.7904Z" fill="white"/>
<path d="M112.886 23.7428L109.453 18.7697L106.566 23.7428H100.631L106.534 14.5986L100.47 5.83946H106.63L110.063 10.7805L112.95 5.83946H118.885L112.886 14.8553L119.046 23.7428H112.886Z" fill="white"/>
<path d="M120.069 14.7591C120.069 12.9195 120.411 11.3046 121.096 9.91424C121.801 8.5239 122.753 7.4544 123.951 6.70575C125.149 5.9571 126.485 5.58278 127.961 5.58278C129.137 5.58278 130.207 5.82876 131.169 6.32073C132.153 6.8127 132.923 7.47579 133.479 8.31V0H138.965V23.7428H133.479V21.1761C132.966 22.0317 132.228 22.7161 131.266 23.2295C130.324 23.7429 129.223 23.9995 127.961 23.9995C126.485 23.9995 125.149 23.6252 123.951 22.8766C122.753 22.1065 121.801 21.0263 121.096 19.636C120.411 18.2242 120.069 16.5986 120.069 14.7591ZM133.479 14.7912C133.479 13.4222 133.094 12.342 132.324 11.5506C131.576 10.7591 130.656 10.3634 129.565 10.3634C128.474 10.3634 127.544 10.7591 126.774 11.5506C126.025 12.3206 125.651 13.3901 125.651 14.7591C125.651 16.128 126.025 17.2189 126.774 18.0317C127.544 18.8232 128.474 19.2189 129.565 19.2189C130.656 19.2189 131.576 18.8232 132.324 18.0317C133.094 17.2403 133.479 16.1601 133.479 14.7912Z" fill="white"/>
<path d="M159.809 14.5024C159.809 15.0157 159.777 15.5505 159.713 16.1066H147.297C147.383 17.2189 147.736 18.0745 148.356 18.6734C148.998 19.251 149.778 19.5397 150.698 19.5397C152.067 19.5397 153.019 18.9622 153.553 17.8071H159.392C159.093 18.9836 158.547 20.0424 157.756 20.9835C156.986 21.9247 156.013 22.6627 154.837 23.1974C153.66 23.7322 152.345 23.9995 150.891 23.9995C149.137 23.9995 147.575 23.6252 146.207 22.8766C144.838 22.1279 143.768 21.0584 142.998 19.6681C142.228 18.2777 141.843 16.6521 141.843 14.7912C141.843 12.9302 142.218 11.3046 142.966 9.91424C143.736 8.5239 144.806 7.4544 146.174 6.70575C147.543 5.9571 149.115 5.58278 150.891 5.58278C152.623 5.58278 154.163 5.94641 155.51 6.67367C156.858 7.40092 157.906 8.43834 158.654 9.7859C159.424 11.1335 159.809 12.7056 159.809 14.5024ZM154.195 13.0586C154.195 12.1174 153.874 11.3688 153.233 10.8126C152.591 10.2565 151.789 9.97841 150.826 9.97841C149.907 9.97841 149.126 10.2458 148.484 10.7805C147.864 11.3153 147.479 12.0746 147.329 13.0586H154.195Z" fill="white"/>
<path d="M170.756 18.6093L174.638 5.83946H180.477L174.125 23.7428H167.355L161.003 5.83946H166.874L170.756 18.6093Z" fill="white"/>
</svg>
