<svg width="181" height="24" viewBox="0 0 181 24" fill="none" xmlns="http://www.w3.org/2000/svg">
<path fill-rule="evenodd" clip-rule="evenodd" d="M5.91181 3.78947C8.72434 -1.26316 15.7557 -1.26316 18.5682 3.78947L23.4901 12.6316C26.2787 17.6411 22.8465 23.8923 17.3055 23.9986C16.3245 22.14 14.4238 20.88 12.24 20.88C10.0562 20.88 8.15553 22.14 7.17451 23.9986C1.63346 23.8923 -1.79865 17.6411 0.989877 12.6316L5.91181 3.78947Z" fill="white"/>
<path d="M36.48 14.7594C36.48 12.9198 36.8222 11.3048 37.5066 9.91444C38.2124 8.52406 39.1642 7.45454 40.362 6.70588C41.5598 5.95722 42.8965 5.58289 44.3723 5.58289C45.6343 5.58289 46.7358 5.83957 47.6769 6.35294C48.6394 6.86631 49.3772 7.54011 49.8906 8.37433V5.83957H55.3767V23.7433H49.8906V21.2086C49.3559 22.0428 48.6073 22.7166 47.6448 23.2299C46.7037 23.7433 45.6022 24 44.3403 24C42.8858 24 41.5598 23.6257 40.362 22.877C39.1642 22.107 38.2124 21.0267 37.5066 19.6364C36.8222 18.2246 36.48 16.5989 36.48 14.7594ZM49.8906 14.7914C49.8906 13.4225 49.5056 12.3422 48.7356 11.5508C47.987 10.7594 47.0673 10.3636 45.9765 10.3636C44.8857 10.3636 43.9553 10.7594 43.1853 11.5508C42.4367 12.3209 42.0624 13.3904 42.0624 14.7594C42.0624 16.1283 42.4367 17.2193 43.1853 18.0321C43.9553 18.8235 44.8857 19.2193 45.9765 19.2193C47.0673 19.2193 47.987 18.8235 48.7356 18.0321C49.5056 17.2406 49.8906 16.1604 49.8906 14.7914Z" fill="white"/>
<path d="M78.5547 0V23.7433H73.0686V0H78.5547Z" fill="white"/>
<path d="M99.406 14.5027C99.406 15.016 99.3739 15.5508 99.3097 16.107H86.8937C86.9792 17.2193 87.3322 18.0749 87.9524 18.6738C88.5941 19.2513 89.3747 19.5401 90.2945 19.5401C91.6633 19.5401 92.6151 18.9626 93.1498 17.8075H98.9889C98.6894 18.984 98.144 20.0428 97.3527 20.984C96.5827 21.9251 95.6095 22.6631 94.4331 23.1979C93.2568 23.7326 91.9414 24 90.4869 24C88.7331 24 87.1717 23.6257 85.8029 22.877C84.434 22.1283 83.3646 21.0588 82.5946 19.6684C81.8246 18.2781 81.4396 16.6524 81.4396 14.7914C81.4396 12.9305 81.8139 11.3048 82.5625 9.91444C83.3325 8.52406 84.4019 7.45454 85.7708 6.70588C87.1396 5.95722 88.7117 5.58289 90.4869 5.58289C92.2194 5.58289 93.7594 5.94652 95.1069 6.6738C96.4544 7.40107 97.5024 8.4385 98.251 9.7861C99.021 11.1337 99.406 12.7059 99.406 14.5027ZM93.7915 13.0588C93.7915 12.1176 93.4707 11.369 92.829 10.8128C92.1873 10.2567 91.3853 9.97861 90.4228 9.97861C89.5031 9.97861 88.7224 10.246 88.0807 10.7807C87.4605 11.3155 87.0755 12.0749 86.9258 13.0588H93.7915Z" fill="white"/>
<path d="M112.887 23.7433L109.455 18.7701L106.567 23.7433H100.632L106.535 14.5989L100.471 5.83957H106.631L110.064 10.7807L112.952 5.83957H118.887L112.887 14.8556L119.047 23.7433H112.887Z" fill="white"/>
<path d="M120.071 14.7594C120.071 12.9198 120.413 11.3048 121.097 9.91444C121.803 8.52406 122.755 7.45454 123.953 6.70588C125.15 5.95722 126.487 5.58289 127.963 5.58289C129.139 5.58289 130.209 5.82888 131.171 6.32085C132.155 6.81283 132.925 7.47593 133.481 8.31016V0H138.967V23.7433H133.481V21.1765C132.968 22.0321 132.23 22.7166 131.267 23.2299C130.326 23.7433 129.225 24 127.963 24C126.487 24 125.15 23.6257 123.953 22.877C122.755 22.107 121.803 21.0267 121.097 19.6364C120.413 18.2246 120.071 16.5989 120.071 14.7594ZM133.481 14.7914C133.481 13.4225 133.096 12.3422 132.326 11.5508C131.578 10.7594 130.658 10.3636 129.567 10.3636C128.476 10.3636 127.546 10.7594 126.776 11.5508C126.027 12.3209 125.653 13.3904 125.653 14.7594C125.653 16.1283 126.027 17.2193 126.776 18.0321C127.546 18.8235 128.476 19.2193 129.567 19.2193C130.658 19.2193 131.578 18.8235 132.326 18.0321C133.096 17.2406 133.481 16.1604 133.481 14.7914Z" fill="white"/>
<path d="M159.812 14.5027C159.812 15.016 159.78 15.5508 159.716 16.107H147.3C147.385 17.2193 147.738 18.0749 148.358 18.6738C149 19.2513 149.781 19.5401 150.7 19.5401C152.069 19.5401 153.021 18.9626 153.556 17.8075H159.395C159.095 18.984 158.55 20.0428 157.758 20.984C156.988 21.9251 156.015 22.6631 154.839 23.1979C153.663 23.7326 152.347 24 150.893 24C149.139 24 147.578 23.6257 146.209 22.877C144.84 22.1283 143.77 21.0588 143 19.6684C142.23 18.2781 141.845 16.6524 141.845 14.7914C141.845 12.9305 142.22 11.3048 142.968 9.91444C143.738 8.52406 144.808 7.45454 146.177 6.70588C147.545 5.95722 149.118 5.58289 150.893 5.58289C152.625 5.58289 154.165 5.94652 155.513 6.6738C156.86 7.40107 157.908 8.4385 158.657 9.7861C159.427 11.1337 159.812 12.7059 159.812 14.5027ZM154.197 13.0588C154.197 12.1176 153.876 11.369 153.235 10.8128C152.593 10.2567 151.791 9.97861 150.829 9.97861C149.909 9.97861 149.128 10.246 148.487 10.7807C147.866 11.3155 147.481 12.0749 147.332 13.0588H154.197Z" fill="white"/>
<path d="M170.759 18.6096L174.641 5.83957H180.48L174.127 23.7433H167.358L161.006 5.83957H166.877L170.759 18.6096Z" fill="white"/>
<path d="M70.4463 5.86139V11.4545H68.9385H64.8319V23.7433H59.3457V9.84C59.3457 8.36406 59.6879 7.33733 60.3724 6.75979C61.0568 6.16086 62.0834 5.86139 63.4523 5.86139H64.9602H70.4463Z" fill="white"/>
</svg>
