<svg width="2178" height="363" viewBox="0 0 2178 363" fill="none" xmlns="http://www.w3.org/2000/svg">
<mask id="path-1-inside-1_720_2" fill="white">
<path d="M0 223.235C0 195.412 5.17602 170.985 15.5281 149.956C26.2036 128.926 40.5994 112.75 58.7155 101.426C76.8315 90.1029 97.0504 84.4412 119.372 84.4412C138.459 84.4412 155.119 88.3235 169.353 96.0882C183.91 103.853 195.071 114.044 202.835 126.662V88.3235H285.813V359.118H202.835V320.779C194.748 333.397 183.425 343.588 168.868 351.353C154.634 359.118 137.973 363 118.887 363C96.8886 363 76.8315 357.338 58.7155 346.015C40.5994 334.368 26.2036 318.029 15.5281 297C5.17602 275.647 0 251.059 0 223.235ZM202.835 223.721C202.835 203.015 197.012 186.676 185.366 174.706C174.044 162.735 160.133 156.75 143.635 156.75C127.136 156.75 113.064 162.735 101.418 174.706C90.0951 186.353 84.4338 202.529 84.4338 223.235C84.4338 243.941 90.0951 260.441 101.418 272.735C113.064 284.706 127.136 290.691 143.635 290.691C160.133 290.691 174.044 284.706 185.366 272.735C197.012 260.765 202.835 244.426 202.835 223.721Z"/>
<path d="M428.822 133.456C438.527 118.574 450.659 106.926 465.216 98.5147C479.774 89.7794 495.949 85.4118 513.741 85.4118V173.25H490.935C470.231 173.25 454.702 177.779 444.35 186.838C433.998 195.574 428.822 211.103 428.822 233.426V359.118H345.844V88.3235H428.822V133.456Z"/>
<path d="M636.381 0V359.118H553.403V0H636.381Z"/>
<path d="M951.757 219.353C951.757 227.118 951.272 235.206 950.301 243.618H762.509C763.803 260.441 769.141 273.382 778.522 282.441C788.227 291.176 800.035 295.544 813.946 295.544C834.65 295.544 849.045 286.809 857.133 269.338H945.449C940.92 287.132 932.671 303.147 920.701 317.382C909.055 331.618 894.336 342.779 876.543 350.868C858.75 358.956 838.855 363 816.857 363C790.33 363 766.714 357.338 746.01 346.015C725.306 334.691 709.131 318.515 697.485 297.485C685.839 276.456 680.016 251.868 680.016 223.721C680.016 195.574 685.677 170.985 697 149.956C708.646 128.926 724.821 112.75 745.525 101.426C766.229 90.1029 790.006 84.4412 816.857 84.4412C843.061 84.4412 866.353 89.9412 886.733 100.941C907.114 111.941 922.965 127.632 934.288 148.015C945.934 168.397 951.757 192.176 951.757 219.353ZM866.838 197.515C866.838 183.279 861.985 171.956 852.28 163.544C842.575 155.132 830.444 150.926 815.887 150.926C801.976 150.926 790.168 154.971 780.463 163.059C771.082 171.147 765.259 182.632 762.994 197.515H866.838Z"/>
<path d="M1155.67 359.118L1103.74 283.897L1060.07 359.118H970.299L1059.59 220.809L967.873 88.3235H1061.04L1112.96 163.059L1156.64 88.3235H1246.41L1155.67 224.691L1248.83 359.118H1155.67Z"/>
<path d="M1264.31 223.235C1264.31 195.412 1269.48 170.985 1279.84 149.956C1290.51 128.926 1304.91 112.75 1323.02 101.426C1341.14 90.1029 1361.36 84.4412 1383.68 84.4412C1401.47 84.4412 1417.65 88.1617 1432.21 95.6029C1447.09 103.044 1458.73 113.074 1467.14 125.691V0H1550.12V359.118H1467.14V320.294C1459.38 333.235 1448.22 343.588 1433.66 351.353C1419.43 359.118 1402.77 363 1383.68 363C1361.36 363 1341.14 357.338 1323.02 346.015C1304.91 334.368 1290.51 318.029 1279.84 297C1269.48 275.647 1264.31 251.059 1264.31 223.235ZM1467.14 223.721C1467.14 203.015 1461.32 186.676 1449.67 174.706C1438.35 162.735 1424.44 156.75 1407.94 156.75C1391.44 156.75 1377.37 162.735 1365.73 174.706C1354.4 186.353 1348.74 202.529 1348.74 223.235C1348.74 243.941 1354.4 260.441 1365.73 272.735C1377.37 284.706 1391.44 290.691 1407.94 290.691C1424.44 290.691 1438.35 284.706 1449.67 272.735C1461.32 260.765 1467.14 244.426 1467.14 223.721Z"/>
<path d="M1865.4 219.353C1865.4 227.118 1864.91 235.206 1863.94 243.618H1676.15C1677.44 260.441 1682.78 273.382 1692.16 282.441C1701.87 291.176 1713.67 295.544 1727.58 295.544C1748.29 295.544 1762.68 286.809 1770.77 269.338H1859.09C1854.56 287.132 1846.31 303.147 1834.34 317.382C1822.69 331.618 1807.97 342.779 1790.18 350.868C1772.39 358.956 1752.49 363 1730.5 363C1703.97 363 1680.35 357.338 1659.65 346.015C1638.94 334.691 1622.77 318.515 1611.12 297.485C1599.48 276.456 1593.65 251.868 1593.65 223.721C1593.65 195.574 1599.32 170.985 1610.64 149.956C1622.28 128.926 1638.46 112.75 1659.16 101.426C1679.87 90.1029 1703.64 84.4412 1730.5 84.4412C1756.7 84.4412 1779.99 89.9412 1800.37 100.941C1820.75 111.941 1836.6 127.632 1847.93 148.015C1859.57 168.397 1865.4 192.176 1865.4 219.353ZM1780.48 197.515C1780.48 183.279 1775.62 171.956 1765.92 163.544C1756.21 155.132 1744.08 150.926 1729.52 150.926C1715.61 150.926 1703.81 154.971 1694.1 163.059C1684.72 171.147 1678.9 182.632 1676.63 197.515H1780.48Z"/>
<path d="M2030.97 281.471L2089.68 88.3235H2178L2081.92 359.118H1979.53L1883.45 88.3235H1972.25L2030.97 281.471Z"/>
</mask>
<path d="M0 223.235C0 195.412 5.17602 170.985 15.5281 149.956C26.2036 128.926 40.5994 112.75 58.7155 101.426C76.8315 90.1029 97.0504 84.4412 119.372 84.4412C138.459 84.4412 155.119 88.3235 169.353 96.0882C183.91 103.853 195.071 114.044 202.835 126.662V88.3235H285.813V359.118H202.835V320.779C194.748 333.397 183.425 343.588 168.868 351.353C154.634 359.118 137.973 363 118.887 363C96.8886 363 76.8315 357.338 58.7155 346.015C40.5994 334.368 26.2036 318.029 15.5281 297C5.17602 275.647 0 251.059 0 223.235ZM202.835 223.721C202.835 203.015 197.012 186.676 185.366 174.706C174.044 162.735 160.133 156.75 143.635 156.75C127.136 156.75 113.064 162.735 101.418 174.706C90.0951 186.353 84.4338 202.529 84.4338 223.235C84.4338 243.941 90.0951 260.441 101.418 272.735C113.064 284.706 127.136 290.691 143.635 290.691C160.133 290.691 174.044 284.706 185.366 272.735C197.012 260.765 202.835 244.426 202.835 223.721Z" stroke="url(#paint0_linear_720_2)" stroke-width="8" mask="url(#path-1-inside-1_720_2)"/>
<path d="M428.822 133.456C438.527 118.574 450.659 106.926 465.216 98.5147C479.774 89.7794 495.949 85.4118 513.741 85.4118V173.25H490.935C470.231 173.25 454.702 177.779 444.35 186.838C433.998 195.574 428.822 211.103 428.822 233.426V359.118H345.844V88.3235H428.822V133.456Z" stroke="url(#paint1_linear_720_2)" stroke-width="8" mask="url(#path-1-inside-1_720_2)"/>
<path d="M636.381 0V359.118H553.403V0H636.381Z" stroke="url(#paint2_linear_720_2)" stroke-width="8" mask="url(#path-1-inside-1_720_2)"/>
<path d="M951.757 219.353C951.757 227.118 951.272 235.206 950.301 243.618H762.509C763.803 260.441 769.141 273.382 778.522 282.441C788.227 291.176 800.035 295.544 813.946 295.544C834.65 295.544 849.045 286.809 857.133 269.338H945.449C940.92 287.132 932.671 303.147 920.701 317.382C909.055 331.618 894.336 342.779 876.543 350.868C858.75 358.956 838.855 363 816.857 363C790.33 363 766.714 357.338 746.01 346.015C725.306 334.691 709.131 318.515 697.485 297.485C685.839 276.456 680.016 251.868 680.016 223.721C680.016 195.574 685.677 170.985 697 149.956C708.646 128.926 724.821 112.75 745.525 101.426C766.229 90.1029 790.006 84.4412 816.857 84.4412C843.061 84.4412 866.353 89.9412 886.733 100.941C907.114 111.941 922.965 127.632 934.288 148.015C945.934 168.397 951.757 192.176 951.757 219.353ZM866.838 197.515C866.838 183.279 861.985 171.956 852.28 163.544C842.575 155.132 830.444 150.926 815.887 150.926C801.976 150.926 790.168 154.971 780.463 163.059C771.082 171.147 765.259 182.632 762.994 197.515H866.838Z" stroke="url(#paint3_linear_720_2)" stroke-width="8" mask="url(#path-1-inside-1_720_2)"/>
<path d="M1155.67 359.118L1103.74 283.897L1060.07 359.118H970.299L1059.59 220.809L967.873 88.3235H1061.04L1112.96 163.059L1156.64 88.3235H1246.41L1155.67 224.691L1248.83 359.118H1155.67Z" stroke="url(#paint4_linear_720_2)" stroke-width="8" mask="url(#path-1-inside-1_720_2)"/>
<path d="M1264.31 223.235C1264.31 195.412 1269.48 170.985 1279.84 149.956C1290.51 128.926 1304.91 112.75 1323.02 101.426C1341.14 90.1029 1361.36 84.4412 1383.68 84.4412C1401.47 84.4412 1417.65 88.1617 1432.21 95.6029C1447.09 103.044 1458.73 113.074 1467.14 125.691V0H1550.12V359.118H1467.14V320.294C1459.38 333.235 1448.22 343.588 1433.66 351.353C1419.43 359.118 1402.77 363 1383.68 363C1361.36 363 1341.14 357.338 1323.02 346.015C1304.91 334.368 1290.51 318.029 1279.84 297C1269.48 275.647 1264.31 251.059 1264.31 223.235ZM1467.14 223.721C1467.14 203.015 1461.32 186.676 1449.67 174.706C1438.35 162.735 1424.44 156.75 1407.94 156.75C1391.44 156.75 1377.37 162.735 1365.73 174.706C1354.4 186.353 1348.74 202.529 1348.74 223.235C1348.74 243.941 1354.4 260.441 1365.73 272.735C1377.37 284.706 1391.44 290.691 1407.94 290.691C1424.44 290.691 1438.35 284.706 1449.67 272.735C1461.32 260.765 1467.14 244.426 1467.14 223.721Z" stroke="url(#paint5_linear_720_2)" stroke-width="8" mask="url(#path-1-inside-1_720_2)"/>
<path d="M1865.4 219.353C1865.4 227.118 1864.91 235.206 1863.94 243.618H1676.15C1677.44 260.441 1682.78 273.382 1692.16 282.441C1701.87 291.176 1713.67 295.544 1727.58 295.544C1748.29 295.544 1762.68 286.809 1770.77 269.338H1859.09C1854.56 287.132 1846.31 303.147 1834.34 317.382C1822.69 331.618 1807.97 342.779 1790.18 350.868C1772.39 358.956 1752.49 363 1730.5 363C1703.97 363 1680.35 357.338 1659.65 346.015C1638.94 334.691 1622.77 318.515 1611.12 297.485C1599.48 276.456 1593.65 251.868 1593.65 223.721C1593.65 195.574 1599.32 170.985 1610.64 149.956C1622.28 128.926 1638.46 112.75 1659.16 101.426C1679.87 90.1029 1703.64 84.4412 1730.5 84.4412C1756.7 84.4412 1779.99 89.9412 1800.37 100.941C1820.75 111.941 1836.6 127.632 1847.93 148.015C1859.57 168.397 1865.4 192.176 1865.4 219.353ZM1780.48 197.515C1780.48 183.279 1775.62 171.956 1765.92 163.544C1756.21 155.132 1744.08 150.926 1729.52 150.926C1715.61 150.926 1703.81 154.971 1694.1 163.059C1684.72 171.147 1678.9 182.632 1676.63 197.515H1780.48Z" stroke="url(#paint6_linear_720_2)" stroke-width="8" mask="url(#path-1-inside-1_720_2)"/>
<path d="M2030.97 281.471L2089.68 88.3235H2178L2081.92 359.118H1979.53L1883.45 88.3235H1972.25L2030.97 281.471Z" stroke="url(#paint7_linear_720_2)" stroke-width="8" mask="url(#path-1-inside-1_720_2)"/>
<defs>
<linearGradient id="paint0_linear_720_2" x1="1089" y1="363" x2="1089" y2="0" gradientUnits="userSpaceOnUse">
<stop stop-color="#090909"/>
<stop offset="0.601218" stop-color="#2A2A2A"/>
</linearGradient>
<linearGradient id="paint1_linear_720_2" x1="1089" y1="363" x2="1089" y2="0" gradientUnits="userSpaceOnUse">
<stop stop-color="#090909"/>
<stop offset="0.601218" stop-color="#2A2A2A"/>
</linearGradient>
<linearGradient id="paint2_linear_720_2" x1="1089" y1="363" x2="1089" y2="0" gradientUnits="userSpaceOnUse">
<stop stop-color="#090909"/>
<stop offset="0.601218" stop-color="#2A2A2A"/>
</linearGradient>
<linearGradient id="paint3_linear_720_2" x1="1089" y1="363" x2="1089" y2="0" gradientUnits="userSpaceOnUse">
<stop stop-color="#090909"/>
<stop offset="0.601218" stop-color="#2A2A2A"/>
</linearGradient>
<linearGradient id="paint4_linear_720_2" x1="1089" y1="363" x2="1089" y2="0" gradientUnits="userSpaceOnUse">
<stop stop-color="#090909"/>
<stop offset="0.601218" stop-color="#2A2A2A"/>
</linearGradient>
<linearGradient id="paint5_linear_720_2" x1="1089" y1="363" x2="1089" y2="0" gradientUnits="userSpaceOnUse">
<stop stop-color="#090909"/>
<stop offset="0.601218" stop-color="#2A2A2A"/>
</linearGradient>
<linearGradient id="paint6_linear_720_2" x1="1089" y1="363" x2="1089" y2="0" gradientUnits="userSpaceOnUse">
<stop stop-color="#090909"/>
<stop offset="0.601218" stop-color="#2A2A2A"/>
</linearGradient>
<linearGradient id="paint7_linear_720_2" x1="1089" y1="363" x2="1089" y2="0" gradientUnits="userSpaceOnUse">
<stop stop-color="#090909"/>
<stop offset="0.601218" stop-color="#2A2A2A"/>
</linearGradient>
</defs>
</svg>
