<svg width="192" height="24" viewBox="0 0 192 24" fill="none" xmlns="http://www.w3.org/2000/svg">
<path fill-rule="evenodd" clip-rule="evenodd" d="M17.6992 3.52474C15.351 -1.17491 8.64898 -1.17492 6.30076 3.52473L0.680925 14.7721C-1.38021 18.8972 1.48073 23.7311 6.00001 23.9892C6.00584 20.6805 8.6899 18 12 18C15.3101 18 17.9942 20.6805 18 23.9892C22.5193 23.7311 25.3802 18.8972 23.3191 14.7721L17.6992 3.52474Z" fill="white"/>
<path d="M48 14.7594C48 12.9198 48.3422 11.3048 49.0266 9.91444C49.7325 8.52406 50.6843 7.45454 51.882 6.70588C53.0798 5.95722 54.4166 5.58289 55.8924 5.58289C57.1543 5.58289 58.2558 5.83957 59.1969 6.35294C60.1594 6.86631 60.8973 7.54011 61.4106 8.37433V5.83957H66.8968V23.7433H61.4106V21.2086C60.8759 22.0428 60.1273 22.7166 59.1648 23.2299C58.2237 23.7433 57.1222 24 55.8603 24C54.4059 24 53.0798 23.6257 51.882 22.877C50.6843 22.107 49.7325 21.0267 49.0266 19.6364C48.3422 18.2246 48 16.5989 48 14.7594ZM61.4106 14.7914C61.4106 13.4225 61.0256 12.3422 60.2556 11.5508C59.507 10.7594 58.5873 10.3636 57.4965 10.3636C56.4057 10.3636 55.4753 10.7594 54.7053 11.5508C53.9567 12.3209 53.5824 13.3904 53.5824 14.7594C53.5824 16.1283 53.9567 17.2193 54.7053 18.0321C55.4753 18.8235 56.4057 19.2193 57.4965 19.2193C58.5873 19.2193 59.507 18.8235 60.2556 18.0321C61.0256 17.2406 61.4106 16.1604 61.4106 14.7914Z" fill="white"/>
<path d="M76.3519 8.82353C76.9935 7.83957 77.7956 7.06952 78.7581 6.51337C79.7206 5.93583 80.79 5.64706 81.9664 5.64706V11.4545H80.4585C79.0896 11.4545 78.063 11.754 77.3785 12.3529C76.6941 12.9305 76.3519 13.9572 76.3519 15.4332V23.7433H70.8657V5.83957H76.3519V8.82353Z" fill="white"/>
<path d="M90.0748 0V23.7433H84.5886V0H90.0748Z" fill="white"/>
<path d="M110.926 14.5027C110.926 15.016 110.894 15.5508 110.83 16.107H98.4138C98.4994 17.2193 98.8523 18.0749 99.4725 18.6738C100.114 19.2513 100.895 19.5401 101.815 19.5401C103.183 19.5401 104.135 18.9626 104.67 17.8075H110.509C110.21 18.984 109.664 20.0428 108.873 20.984C108.103 21.9251 107.13 22.6631 105.953 23.1979C104.777 23.7326 103.461 24 102.007 24C100.253 24 98.6919 23.6257 97.323 22.877C95.9541 22.1283 94.8847 21.0588 94.1147 19.6684C93.3447 18.2781 92.9597 16.6524 92.9597 14.7914C92.9597 12.9305 93.334 11.3048 94.0826 9.91444C94.8526 8.52406 95.922 7.45454 97.2909 6.70588C98.6598 5.95722 100.232 5.58289 102.007 5.58289C103.74 5.58289 105.28 5.94652 106.627 6.6738C107.974 7.40107 109.023 8.4385 109.771 9.78609C110.541 11.1337 110.926 12.7059 110.926 14.5027ZM105.312 13.0588C105.312 12.1176 104.991 11.369 104.349 10.8128C103.707 10.2567 102.905 9.97861 101.943 9.97861C101.023 9.97861 100.243 10.246 99.6009 10.7807C98.9806 11.3155 98.5956 12.0749 98.4459 13.0588H105.312Z" fill="white"/>
<path d="M124.408 23.7433L120.975 18.7701L118.087 23.7433H112.152L118.055 14.5989L111.992 5.83957H118.151L121.584 10.7807L124.472 5.83957H130.407L124.408 14.8556L130.568 23.7433H124.408Z" fill="white"/>
<path d="M131.591 14.7594C131.591 12.9198 131.933 11.3048 132.617 9.91444C133.323 8.52406 134.275 7.45454 135.473 6.70588C136.67 5.95722 138.007 5.58289 139.483 5.58289C140.659 5.58289 141.729 5.82888 142.691 6.32085C143.675 6.81283 144.445 7.47593 145.001 8.31016V0H150.487V23.7433H145.001V21.1765C144.488 22.0321 143.75 22.7166 142.788 23.2299C141.846 23.7433 140.745 24 139.483 24C138.007 24 136.67 23.6257 135.473 22.877C134.275 22.107 133.323 21.0267 132.617 19.6364C131.933 18.2246 131.591 16.5989 131.591 14.7594ZM145.001 14.7914C145.001 13.4225 144.616 12.3422 143.846 11.5508C143.098 10.7594 142.178 10.3636 141.087 10.3636C139.996 10.3636 139.066 10.7594 138.296 11.5508C137.547 12.3209 137.173 13.3904 137.173 14.7594C137.173 16.1283 137.547 17.2193 138.296 18.0321C139.066 18.8235 139.996 19.2193 141.087 19.2193C142.178 19.2193 143.098 18.8235 143.846 18.0321C144.616 17.2406 145.001 16.1604 145.001 14.7914Z" fill="white"/>
<path d="M171.332 14.5027C171.332 15.016 171.3 15.5508 171.236 16.107H158.82C158.905 17.2193 159.258 18.0749 159.878 18.6738C160.52 19.2513 161.301 19.5401 162.22 19.5401C163.589 19.5401 164.541 18.9626 165.076 17.8075H170.915C170.615 18.984 170.07 20.0428 169.279 20.984C168.509 21.9251 167.535 22.6631 166.359 23.1979C165.183 23.7326 163.867 24 162.413 24C160.659 24 159.098 23.6257 157.729 22.877C156.36 22.1283 155.291 21.0588 154.521 19.6684C153.751 18.2781 153.366 16.6524 153.366 14.7914C153.366 12.9305 153.74 11.3048 154.488 9.91444C155.258 8.52406 156.328 7.45454 157.697 6.70588C159.066 5.95722 160.638 5.58289 162.413 5.58289C164.145 5.58289 165.685 5.94652 167.033 6.6738C168.38 7.40107 169.428 8.4385 170.177 9.78609C170.947 11.1337 171.332 12.7059 171.332 14.5027ZM165.717 13.0588C165.717 12.1176 165.397 11.369 164.755 10.8128C164.113 10.2567 163.311 9.97861 162.349 9.97861C161.429 9.97861 160.648 10.246 160.007 10.7807C159.386 11.3155 159.001 12.0749 158.852 13.0588H165.717Z" fill="white"/>
<path d="M182.279 18.6096L186.161 5.83957H192L185.648 23.7433H178.878L172.526 5.83957H178.397L182.279 18.6096Z" fill="white"/>
</svg>
