<svg width="188" height="24" viewBox="0 0 188 24" fill="none" xmlns="http://www.w3.org/2000/svg">
<path d="M43.4409 14.7594C43.4409 12.9198 43.7831 11.3048 44.4676 9.91444C45.1734 8.52406 46.1252 7.45454 47.3229 6.70588C48.5207 5.95722 49.8575 5.58289 51.3333 5.58289C52.5952 5.58289 53.6967 5.83957 54.6378 6.35294C55.6003 6.86631 56.3382 7.54011 56.8515 8.37433V5.83957H62.3377V23.7433H56.8515V21.2086C56.3168 22.0428 55.5682 22.7166 54.6057 23.2299C53.6646 23.7433 52.5631 24 51.3012 24C49.8468 24 48.5207 23.6257 47.3229 22.877C46.1252 22.107 45.1734 21.0267 44.4676 19.6364C43.7831 18.2246 43.4409 16.5989 43.4409 14.7594ZM56.8515 14.7914C56.8515 13.4225 56.4665 12.3422 55.6965 11.5508C54.9479 10.7594 54.0282 10.3636 52.9374 10.3636C51.8466 10.3636 50.9162 10.7594 50.1462 11.5508C49.3976 12.3209 49.0233 13.3904 49.0233 14.7594C49.0233 16.1283 49.3976 17.2193 50.1462 18.0321C50.9162 18.8235 51.8466 19.2193 52.9374 19.2193C54.0282 19.2193 54.9479 18.8235 55.6965 18.0321C56.4665 17.2406 56.8515 16.1604 56.8515 14.7914Z" fill="white"/>
<path d="M71.7928 8.82353C72.4345 7.83957 73.2365 7.06952 74.199 6.51337C75.1615 5.93583 76.2309 5.64706 77.4073 5.64706V11.4545H75.8994C74.5305 11.4545 73.5039 11.754 72.8194 12.3529C72.135 12.9305 71.7928 13.9572 71.7928 15.4332V23.7433H66.3066V5.83957H71.7928V8.82353Z" fill="white"/>
<path d="M85.5156 0V23.7433H80.0295V0H85.5156Z" fill="white"/>
<path d="M106.367 14.5027C106.367 15.016 106.335 15.5508 106.271 16.107H93.8546C93.9402 17.2193 94.2931 18.0749 94.9134 18.6738C95.555 19.2513 96.3357 19.5401 97.2554 19.5401C98.6243 19.5401 99.5761 18.9626 100.111 17.8075H105.95C105.65 18.984 105.105 20.0428 104.314 20.984C103.544 21.9251 102.57 22.6631 101.394 23.1979C100.218 23.7326 98.9023 24 97.4479 24C95.694 24 94.1327 23.6257 92.7638 22.877C91.3949 22.1283 90.3255 21.0588 89.5555 19.6684C88.7855 18.2781 88.4005 16.6524 88.4005 14.7914C88.4005 12.9305 88.7748 11.3048 89.5234 9.91444C90.2934 8.52406 91.3629 7.45454 92.7317 6.70588C94.1006 5.95722 95.6726 5.58289 97.4479 5.58289C99.1804 5.58289 100.72 5.94652 102.068 6.6738C103.415 7.40107 104.463 8.4385 105.212 9.7861C105.982 11.1337 106.367 12.7059 106.367 14.5027ZM100.752 13.0588C100.752 12.1176 100.432 11.369 99.7899 10.8128C99.1483 10.2567 98.3462 9.97861 97.3837 9.97861C96.464 9.97861 95.6833 10.246 95.0417 10.7807C94.4214 11.3155 94.0364 12.0749 93.8867 13.0588H100.752Z" fill="white"/>
<path d="M119.848 23.7433L116.416 18.7701L113.528 23.7433H107.593L113.496 14.5989L107.432 5.83957H113.592L117.025 10.7807L119.913 5.83957H125.848L119.848 14.8556L126.008 23.7433H119.848Z" fill="white"/>
<path d="M127.031 14.7594C127.031 12.9198 127.374 11.3048 128.058 9.91444C128.764 8.52406 129.716 7.45454 130.913 6.70588C132.111 5.95722 133.448 5.58289 134.924 5.58289C136.1 5.58289 137.17 5.82888 138.132 6.32085C139.116 6.81283 139.886 7.47593 140.442 8.31016V0H145.928V23.7433H140.442V21.1765C139.929 22.0321 139.191 22.7166 138.228 23.2299C137.287 23.7433 136.186 24 134.924 24C133.448 24 132.111 23.6257 130.913 22.877C129.716 22.107 128.764 21.0267 128.058 19.6364C127.374 18.2246 127.031 16.5989 127.031 14.7594ZM140.442 14.7914C140.442 13.4225 140.057 12.3422 139.287 11.5508C138.538 10.7594 137.619 10.3636 136.528 10.3636C135.437 10.3636 134.507 10.7594 133.737 11.5508C132.988 12.3209 132.614 13.3904 132.614 14.7594C132.614 16.1283 132.988 17.2193 133.737 18.0321C134.507 18.8235 135.437 19.2193 136.528 19.2193C137.619 19.2193 138.538 18.8235 139.287 18.0321C140.057 17.2406 140.442 16.1604 140.442 14.7914Z" fill="white"/>
<path d="M166.773 14.5027C166.773 15.016 166.741 15.5508 166.676 16.107H154.26C154.346 17.2193 154.699 18.0749 155.319 18.6738C155.961 19.2513 156.742 19.5401 157.661 19.5401C159.03 19.5401 159.982 18.9626 160.517 17.8075H166.356C166.056 18.984 165.511 20.0428 164.719 20.984C163.949 21.9251 162.976 22.6631 161.8 23.1979C160.624 23.7326 159.308 24 157.854 24C156.1 24 154.539 23.6257 153.17 22.877C151.801 22.1283 150.731 21.0588 149.961 19.6684C149.191 18.2781 148.806 16.6524 148.806 14.7914C148.806 12.9305 149.181 11.3048 149.929 9.91444C150.699 8.52406 151.769 7.45454 153.138 6.70588C154.506 5.95722 156.078 5.58289 157.854 5.58289C159.586 5.58289 161.126 5.94652 162.474 6.6738C163.821 7.40107 164.869 8.4385 165.618 9.7861C166.388 11.1337 166.773 12.7059 166.773 14.5027ZM161.158 13.0588C161.158 12.1176 160.837 11.369 160.196 10.8128C159.554 10.2567 158.752 9.97861 157.79 9.97861C156.87 9.97861 156.089 10.246 155.448 10.7807C154.827 11.3155 154.442 12.0749 154.293 13.0588H161.158Z" fill="white"/>
<path d="M177.72 18.6096L181.602 5.83957H187.441L181.088 23.7433H174.319L167.967 5.83957H173.838L177.72 18.6096Z" fill="white"/>
<path fill-rule="evenodd" clip-rule="evenodd" d="M5.91181 3.78947C8.72434 -1.26316 15.7557 -1.26316 18.5682 3.78947L23.4901 12.6316C26.2787 17.6411 22.8465 23.8923 17.3055 23.9986C16.3245 22.14 14.4238 20.88 12.24 20.88C10.0562 20.88 8.15553 22.14 7.17451 23.9986C1.63346 23.8923 -1.79865 17.6411 0.989877 12.6316L5.91181 3.78947Z" fill="white"/>
</svg>
