<svg width="2188" height="371" viewBox="0 0 2188 371" fill="none" xmlns="http://www.w3.org/2000/svg">
<mask id="path-1-outside-1_720_2" maskUnits="userSpaceOnUse" x="0" y="0" width="2188" height="371" fill="black">
<rect fill="white" width="2188" height="371"/>
<path d="M4 227.235C4 199.412 9.17602 174.985 19.5281 153.956C30.2036 132.926 44.5994 116.75 62.7155 105.426C80.8315 94.1029 101.05 88.4412 123.372 88.4412C142.459 88.4412 159.119 92.3235 173.353 100.088C187.91 107.853 199.071 118.044 206.835 130.662V92.3235H289.813V363.118H206.835V324.779C198.748 337.397 187.425 347.588 172.868 355.353C158.634 363.118 141.973 367 122.887 367C100.889 367 80.8315 361.338 62.7155 350.015C44.5994 338.368 30.2036 322.029 19.5281 301C9.17602 279.647 4 255.059 4 227.235ZM206.835 227.721C206.835 207.015 201.012 190.676 189.366 178.706C178.044 166.735 164.133 160.75 147.635 160.75C131.136 160.75 117.064 166.735 105.418 178.706C94.0951 190.353 88.4338 206.529 88.4338 227.235C88.4338 247.941 94.0951 264.441 105.418 276.735C117.064 288.706 131.136 294.691 147.635 294.691C164.133 294.691 178.044 288.706 189.366 276.735C201.012 264.765 206.835 248.426 206.835 227.721Z"/>
<path d="M432.822 137.456C442.527 122.574 454.659 110.926 469.216 102.515C483.774 93.7794 499.949 89.4118 517.741 89.4118V177.25H494.935C474.231 177.25 458.702 181.779 448.35 190.838C437.998 199.574 432.822 215.103 432.822 237.426V363.118H349.844V92.3235H432.822V137.456Z"/>
<path d="M640.381 4V363.118H557.403V4H640.381Z"/>
<path d="M955.757 223.353C955.757 231.118 955.272 239.206 954.301 247.618H766.509C767.803 264.441 773.141 277.382 782.522 286.441C792.227 295.176 804.035 299.544 817.946 299.544C838.65 299.544 853.045 290.809 861.133 273.338H949.449C944.92 291.132 936.671 307.147 924.701 321.382C913.055 335.618 898.336 346.779 880.543 354.868C862.75 362.956 842.855 367 820.857 367C794.33 367 770.714 361.338 750.01 350.015C729.306 338.691 713.131 322.515 701.485 301.485C689.839 280.456 684.016 255.868 684.016 227.721C684.016 199.574 689.677 174.985 701 153.956C712.646 132.926 728.821 116.75 749.525 105.426C770.229 94.1029 794.006 88.4412 820.857 88.4412C847.061 88.4412 870.353 93.9412 890.733 104.941C911.114 115.941 926.965 131.632 938.288 152.015C949.934 172.397 955.757 196.176 955.757 223.353ZM870.838 201.515C870.838 187.279 865.985 175.956 856.28 167.544C846.575 159.132 834.444 154.926 819.887 154.926C805.976 154.926 794.168 158.971 784.463 167.059C775.082 175.147 769.259 186.632 766.994 201.515H870.838Z"/>
<path d="M1159.67 363.118L1107.74 287.897L1064.07 363.118H974.299L1063.59 224.809L971.873 92.3235H1065.04L1116.96 167.059L1160.64 92.3235H1250.41L1159.67 228.691L1252.83 363.118H1159.67Z"/>
<path d="M1268.31 227.235C1268.31 199.412 1273.48 174.985 1283.84 153.956C1294.51 132.926 1308.91 116.75 1327.02 105.426C1345.14 94.1029 1365.36 88.4412 1387.68 88.4412C1405.47 88.4412 1421.65 92.1617 1436.21 99.6029C1451.09 107.044 1462.73 117.074 1471.14 129.691V4H1554.12V363.118H1471.14V324.294C1463.38 337.235 1452.22 347.588 1437.66 355.353C1423.43 363.118 1406.77 367 1387.68 367C1365.36 367 1345.14 361.338 1327.02 350.015C1308.91 338.368 1294.51 322.029 1283.84 301C1273.48 279.647 1268.31 255.059 1268.31 227.235ZM1471.14 227.721C1471.14 207.015 1465.32 190.676 1453.67 178.706C1442.35 166.735 1428.44 160.75 1411.94 160.75C1395.44 160.75 1381.37 166.735 1369.73 178.706C1358.4 190.353 1352.74 206.529 1352.74 227.235C1352.74 247.941 1358.4 264.441 1369.73 276.735C1381.37 288.706 1395.44 294.691 1411.94 294.691C1428.44 294.691 1442.35 288.706 1453.67 276.735C1465.32 264.765 1471.14 248.426 1471.14 227.721Z"/>
<path d="M1869.4 223.353C1869.4 231.118 1868.91 239.206 1867.94 247.618H1680.15C1681.44 264.441 1686.78 277.382 1696.16 286.441C1705.87 295.176 1717.67 299.544 1731.58 299.544C1752.29 299.544 1766.68 290.809 1774.77 273.338H1863.09C1858.56 291.132 1850.31 307.147 1838.34 321.382C1826.69 335.618 1811.97 346.779 1794.18 354.868C1776.39 362.956 1756.49 367 1734.5 367C1707.97 367 1684.35 361.338 1663.65 350.015C1642.94 338.691 1626.77 322.515 1615.12 301.485C1603.48 280.456 1597.65 255.868 1597.65 227.721C1597.65 199.574 1603.32 174.985 1614.64 153.956C1626.28 132.926 1642.46 116.75 1663.16 105.426C1683.87 94.1029 1707.64 88.4412 1734.5 88.4412C1760.7 88.4412 1783.99 93.9412 1804.37 104.941C1824.75 115.941 1840.6 131.632 1851.93 152.015C1863.57 172.397 1869.4 196.176 1869.4 223.353ZM1784.48 201.515C1784.48 187.279 1779.62 175.956 1769.92 167.544C1760.21 159.132 1748.08 154.926 1733.52 154.926C1719.61 154.926 1707.81 158.971 1698.1 167.059C1688.72 175.147 1682.9 186.632 1680.63 201.515H1784.48Z"/>
<path d="M2034.97 285.471L2093.68 92.3235H2182L2085.92 363.118H1983.53L1887.45 92.3235H1976.25L2034.97 285.471Z"/>
</mask>
<path d="M4 227.235C4 199.412 9.17602 174.985 19.5281 153.956C30.2036 132.926 44.5994 116.75 62.7155 105.426C80.8315 94.1029 101.05 88.4412 123.372 88.4412C142.459 88.4412 159.119 92.3235 173.353 100.088C187.91 107.853 199.071 118.044 206.835 130.662V92.3235H289.813V363.118H206.835V324.779C198.748 337.397 187.425 347.588 172.868 355.353C158.634 363.118 141.973 367 122.887 367C100.889 367 80.8315 361.338 62.7155 350.015C44.5994 338.368 30.2036 322.029 19.5281 301C9.17602 279.647 4 255.059 4 227.235ZM206.835 227.721C206.835 207.015 201.012 190.676 189.366 178.706C178.044 166.735 164.133 160.75 147.635 160.75C131.136 160.75 117.064 166.735 105.418 178.706C94.0951 190.353 88.4338 206.529 88.4338 227.235C88.4338 247.941 94.0951 264.441 105.418 276.735C117.064 288.706 131.136 294.691 147.635 294.691C164.133 294.691 178.044 288.706 189.366 276.735C201.012 264.765 206.835 248.426 206.835 227.721Z" stroke="url(#paint0_linear_720_2)" stroke-width="8" mask="url(#path-1-outside-1_720_2)"/>
<path d="M432.822 137.456C442.527 122.574 454.659 110.926 469.216 102.515C483.774 93.7794 499.949 89.4118 517.741 89.4118V177.25H494.935C474.231 177.25 458.702 181.779 448.35 190.838C437.998 199.574 432.822 215.103 432.822 237.426V363.118H349.844V92.3235H432.822V137.456Z" stroke="url(#paint1_linear_720_2)" stroke-width="8" mask="url(#path-1-outside-1_720_2)"/>
<path d="M640.381 4V363.118H557.403V4H640.381Z" stroke="url(#paint2_linear_720_2)" stroke-width="8" mask="url(#path-1-outside-1_720_2)"/>
<path d="M955.757 223.353C955.757 231.118 955.272 239.206 954.301 247.618H766.509C767.803 264.441 773.141 277.382 782.522 286.441C792.227 295.176 804.035 299.544 817.946 299.544C838.65 299.544 853.045 290.809 861.133 273.338H949.449C944.92 291.132 936.671 307.147 924.701 321.382C913.055 335.618 898.336 346.779 880.543 354.868C862.75 362.956 842.855 367 820.857 367C794.33 367 770.714 361.338 750.01 350.015C729.306 338.691 713.131 322.515 701.485 301.485C689.839 280.456 684.016 255.868 684.016 227.721C684.016 199.574 689.677 174.985 701 153.956C712.646 132.926 728.821 116.75 749.525 105.426C770.229 94.1029 794.006 88.4412 820.857 88.4412C847.061 88.4412 870.353 93.9412 890.733 104.941C911.114 115.941 926.965 131.632 938.288 152.015C949.934 172.397 955.757 196.176 955.757 223.353ZM870.838 201.515C870.838 187.279 865.985 175.956 856.28 167.544C846.575 159.132 834.444 154.926 819.887 154.926C805.976 154.926 794.168 158.971 784.463 167.059C775.082 175.147 769.259 186.632 766.994 201.515H870.838Z" stroke="url(#paint3_linear_720_2)" stroke-width="8" mask="url(#path-1-outside-1_720_2)"/>
<path d="M1159.67 363.118L1107.74 287.897L1064.07 363.118H974.299L1063.59 224.809L971.873 92.3235H1065.04L1116.96 167.059L1160.64 92.3235H1250.41L1159.67 228.691L1252.83 363.118H1159.67Z" stroke="url(#paint4_linear_720_2)" stroke-width="8" mask="url(#path-1-outside-1_720_2)"/>
<path d="M1268.31 227.235C1268.31 199.412 1273.48 174.985 1283.84 153.956C1294.51 132.926 1308.91 116.75 1327.02 105.426C1345.14 94.1029 1365.36 88.4412 1387.68 88.4412C1405.47 88.4412 1421.65 92.1617 1436.21 99.6029C1451.09 107.044 1462.73 117.074 1471.14 129.691V4H1554.12V363.118H1471.14V324.294C1463.38 337.235 1452.22 347.588 1437.66 355.353C1423.43 363.118 1406.77 367 1387.68 367C1365.36 367 1345.14 361.338 1327.02 350.015C1308.91 338.368 1294.51 322.029 1283.84 301C1273.48 279.647 1268.31 255.059 1268.31 227.235ZM1471.14 227.721C1471.14 207.015 1465.32 190.676 1453.67 178.706C1442.35 166.735 1428.44 160.75 1411.94 160.75C1395.44 160.75 1381.37 166.735 1369.73 178.706C1358.4 190.353 1352.74 206.529 1352.74 227.235C1352.74 247.941 1358.4 264.441 1369.73 276.735C1381.37 288.706 1395.44 294.691 1411.94 294.691C1428.44 294.691 1442.35 288.706 1453.67 276.735C1465.32 264.765 1471.14 248.426 1471.14 227.721Z" stroke="url(#paint5_linear_720_2)" stroke-width="8" mask="url(#path-1-outside-1_720_2)"/>
<path d="M1869.4 223.353C1869.4 231.118 1868.91 239.206 1867.94 247.618H1680.15C1681.44 264.441 1686.78 277.382 1696.16 286.441C1705.87 295.176 1717.67 299.544 1731.58 299.544C1752.29 299.544 1766.68 290.809 1774.77 273.338H1863.09C1858.56 291.132 1850.31 307.147 1838.34 321.382C1826.69 335.618 1811.97 346.779 1794.18 354.868C1776.39 362.956 1756.49 367 1734.5 367C1707.97 367 1684.35 361.338 1663.65 350.015C1642.94 338.691 1626.77 322.515 1615.12 301.485C1603.48 280.456 1597.65 255.868 1597.65 227.721C1597.65 199.574 1603.32 174.985 1614.64 153.956C1626.28 132.926 1642.46 116.75 1663.16 105.426C1683.87 94.1029 1707.64 88.4412 1734.5 88.4412C1760.7 88.4412 1783.99 93.9412 1804.37 104.941C1824.75 115.941 1840.6 131.632 1851.93 152.015C1863.57 172.397 1869.4 196.176 1869.4 223.353ZM1784.48 201.515C1784.48 187.279 1779.62 175.956 1769.92 167.544C1760.21 159.132 1748.08 154.926 1733.52 154.926C1719.61 154.926 1707.81 158.971 1698.1 167.059C1688.72 175.147 1682.9 186.632 1680.63 201.515H1784.48Z" stroke="url(#paint6_linear_720_2)" stroke-width="8" mask="url(#path-1-outside-1_720_2)"/>
<path d="M2034.97 285.471L2093.68 92.3235H2182L2085.92 363.118H1983.53L1887.45 92.3235H1976.25L2034.97 285.471Z" stroke="url(#paint7_linear_720_2)" stroke-width="8" mask="url(#path-1-outside-1_720_2)"/>
<defs>
<linearGradient id="paint0_linear_720_2" x1="1093" y1="367" x2="1093" y2="4" gradientUnits="userSpaceOnUse">
<stop/>
<stop offset="0.3" stop-color="#2A2A2A"/>
</linearGradient>
<linearGradient id="paint1_linear_720_2" x1="1093" y1="367" x2="1093" y2="4" gradientUnits="userSpaceOnUse">
<stop/>
<stop offset="0.3" stop-color="#2A2A2A"/>
</linearGradient>
<linearGradient id="paint2_linear_720_2" x1="1093" y1="367" x2="1093" y2="4" gradientUnits="userSpaceOnUse">
<stop/>
<stop offset="0.3" stop-color="#2A2A2A"/>
</linearGradient>
<linearGradient id="paint3_linear_720_2" x1="1093" y1="367" x2="1093" y2="4" gradientUnits="userSpaceOnUse">
<stop/>
<stop offset="0.3" stop-color="#2A2A2A"/>
</linearGradient>
<linearGradient id="paint4_linear_720_2" x1="1093" y1="367" x2="1093" y2="4" gradientUnits="userSpaceOnUse">
<stop/>
<stop offset="0.3" stop-color="#2A2A2A"/>
</linearGradient>
<linearGradient id="paint5_linear_720_2" x1="1093" y1="367" x2="1093" y2="4" gradientUnits="userSpaceOnUse">
<stop/>
<stop offset="0.3" stop-color="#2A2A2A"/>
</linearGradient>
<linearGradient id="paint6_linear_720_2" x1="1093" y1="367" x2="1093" y2="4" gradientUnits="userSpaceOnUse">
<stop/>
<stop offset="0.3" stop-color="#2A2A2A"/>
</linearGradient>
<linearGradient id="paint7_linear_720_2" x1="1093" y1="367" x2="1093" y2="4" gradientUnits="userSpaceOnUse">
<stop/>
<stop offset="0.3" stop-color="#2A2A2A"/>
</linearGradient>
</defs>
</svg>
