<svg width="2183" height="367" viewBox="0 0 2183 367" fill="none" xmlns="http://www.w3.org/2000/svg">
<path d="M2 225.235C2 197.412 7.17602 172.985 17.5281 151.956C28.2036 130.926 42.5994 114.75 60.7155 103.426C78.8316 92.1029 99.0505 86.4412 121.372 86.4412C140.459 86.4412 157.119 90.3235 171.353 98.0882C185.911 105.853 197.071 116.044 204.835 128.662V90.3235H287.813V361.118H204.835V322.779C196.748 335.397 185.425 345.588 170.868 353.353C156.634 361.118 139.973 365 120.887 365C98.8887 365 78.8316 359.338 60.7155 348.015C42.5994 336.368 28.2036 320.029 17.5281 299C7.17602 277.647 2 253.059 2 225.235ZM204.835 225.721C204.835 205.015 199.012 188.676 187.366 176.706C176.044 164.735 162.133 158.75 145.635 158.75C129.136 158.75 115.064 164.735 103.418 176.706C92.0952 188.353 86.4339 204.529 86.4339 225.235C86.4339 245.941 92.0952 262.441 103.418 274.735C115.064 286.706 129.136 292.691 145.635 292.691C162.133 292.691 176.044 286.706 187.366 274.735C199.012 262.765 204.835 246.426 204.835 225.721Z" stroke="url(#paint0_linear_787_10)" stroke-width="4"/>
<path d="M638.38 2V361.118H555.403V2H638.38Z" stroke="url(#paint1_linear_787_10)" stroke-width="4"/>
<path d="M953.756 221.353C953.756 229.118 953.271 237.206 952.301 245.618H764.508C765.802 262.441 771.14 275.382 780.521 284.441C790.226 293.176 802.034 297.544 815.945 297.544C836.649 297.544 851.045 288.809 859.132 271.338H947.448C942.919 289.132 934.67 305.147 922.7 319.382C911.054 333.618 896.335 344.779 878.542 352.868C860.75 360.956 840.854 365 818.856 365C792.329 365 768.714 359.338 748.009 348.015C727.305 336.691 711.13 320.515 699.484 299.485C687.838 278.456 682.015 253.868 682.015 225.721C682.015 197.574 687.676 172.985 698.999 151.956C710.645 130.926 726.82 114.75 747.524 103.426C768.228 92.1029 792.005 86.4412 818.856 86.4412C845.06 86.4412 868.352 91.9412 888.733 102.941C909.113 113.941 924.965 129.632 936.287 150.015C947.933 170.397 953.756 194.176 953.756 221.353ZM868.837 199.515C868.837 185.279 863.985 173.956 854.28 165.544C844.575 157.132 832.443 152.926 817.886 152.926C803.975 152.926 792.167 156.971 782.462 165.059C773.081 173.147 767.258 184.632 764.993 199.515H868.837Z" stroke="url(#paint2_linear_787_10)" stroke-width="4"/>
<path d="M1157.66 361.118L1105.74 285.897L1062.07 361.118H972.298L1061.58 222.809L969.872 90.3235H1063.04L1114.96 165.059L1158.64 90.3235H1248.41L1157.66 226.691L1250.83 361.118H1157.66Z" stroke="url(#paint3_linear_787_10)" stroke-width="4"/>
<path d="M1266.31 225.235C1266.31 197.412 1271.48 172.985 1281.84 151.956C1292.51 130.926 1306.91 114.75 1325.02 103.426C1343.14 92.1029 1363.36 86.4412 1385.68 86.4412C1403.47 86.4412 1419.65 90.1617 1434.21 97.6029C1449.09 105.044 1460.73 115.074 1469.14 127.691V2H1552.12V361.118H1469.14V322.294C1461.38 335.235 1450.22 345.588 1435.66 353.353C1421.43 361.118 1404.77 365 1385.68 365C1363.36 365 1343.14 359.338 1325.02 348.015C1306.91 336.368 1292.51 320.029 1281.84 299C1271.48 277.647 1266.31 253.059 1266.31 225.235ZM1469.14 225.721C1469.14 205.015 1463.32 188.676 1451.67 176.706C1440.35 164.735 1426.44 158.75 1409.94 158.75C1393.44 158.75 1379.37 164.735 1367.73 176.706C1356.4 188.353 1350.74 204.529 1350.74 225.235C1350.74 245.941 1356.4 262.441 1367.73 274.735C1379.37 286.706 1393.44 292.691 1409.94 292.691C1426.44 292.691 1440.35 286.706 1451.67 274.735C1463.32 262.765 1469.14 246.426 1469.14 225.721Z" stroke="url(#paint4_linear_787_10)" stroke-width="4"/>
<path d="M1867.4 221.353C1867.4 229.118 1866.91 237.206 1865.94 245.618H1678.15C1679.44 262.441 1684.78 275.382 1694.16 284.441C1703.87 293.176 1715.67 297.544 1729.58 297.544C1750.29 297.544 1764.68 288.809 1772.77 271.338H1861.09C1856.56 289.132 1848.31 305.147 1836.34 319.382C1824.69 333.618 1809.97 344.779 1792.18 352.868C1774.39 360.956 1754.49 365 1732.5 365C1705.97 365 1682.35 359.338 1661.65 348.015C1640.94 336.691 1624.77 320.515 1613.12 299.485C1601.48 278.456 1595.65 253.868 1595.65 225.721C1595.65 197.574 1601.32 172.985 1612.64 151.956C1624.28 130.926 1640.46 114.75 1661.16 103.426C1681.87 92.1029 1705.64 86.4412 1732.5 86.4412C1758.7 86.4412 1781.99 91.9412 1802.37 102.941C1822.75 113.941 1838.6 129.632 1849.93 150.015C1861.57 170.397 1867.4 194.176 1867.4 221.353ZM1782.48 199.515C1782.48 185.279 1777.62 173.956 1767.92 165.544C1758.21 157.132 1746.08 152.926 1731.52 152.926C1717.61 152.926 1705.81 156.971 1696.1 165.059C1686.72 173.147 1680.9 184.632 1678.63 199.515H1782.48Z" stroke="url(#paint5_linear_787_10)" stroke-width="4"/>
<path d="M2032.97 283.471L2091.68 90.3235H2180L2083.92 361.118H1981.53L1885.45 90.3235H1974.25L2032.97 283.471Z" stroke="url(#paint6_linear_787_10)" stroke-width="4"/>
<path d="M515.742 90.6535V175.25H492.935H430.823V361.118H347.844V150.83C347.844 128.506 353.02 112.977 363.372 104.242C373.725 95.1829 389.253 90.6535 409.957 90.6535H432.763H515.742Z" stroke="url(#paint7_linear_787_10)" stroke-width="4"/>
<defs>
<linearGradient id="paint0_linear_787_10" x1="1091" y1="2" x2="1091" y2="365" gradientUnits="userSpaceOnUse">
<stop offset="0.6" stop-color="#2A2A2A"/>
<stop offset="1" stop-color="#060606"/>
</linearGradient>
<linearGradient id="paint1_linear_787_10" x1="1091" y1="2" x2="1091" y2="365" gradientUnits="userSpaceOnUse">
<stop offset="0.6" stop-color="#2A2A2A"/>
<stop offset="1" stop-color="#060606"/>
</linearGradient>
<linearGradient id="paint2_linear_787_10" x1="1091" y1="2" x2="1091" y2="365" gradientUnits="userSpaceOnUse">
<stop offset="0.6" stop-color="#2A2A2A"/>
<stop offset="1" stop-color="#060606"/>
</linearGradient>
<linearGradient id="paint3_linear_787_10" x1="1091" y1="2" x2="1091" y2="365" gradientUnits="userSpaceOnUse">
<stop offset="0.6" stop-color="#2A2A2A"/>
<stop offset="1" stop-color="#060606"/>
</linearGradient>
<linearGradient id="paint4_linear_787_10" x1="1091" y1="2" x2="1091" y2="365" gradientUnits="userSpaceOnUse">
<stop offset="0.6" stop-color="#2A2A2A"/>
<stop offset="1" stop-color="#060606"/>
</linearGradient>
<linearGradient id="paint5_linear_787_10" x1="1091" y1="2" x2="1091" y2="365" gradientUnits="userSpaceOnUse">
<stop offset="0.6" stop-color="#2A2A2A"/>
<stop offset="1" stop-color="#060606"/>
</linearGradient>
<linearGradient id="paint6_linear_787_10" x1="1091" y1="2" x2="1091" y2="365" gradientUnits="userSpaceOnUse">
<stop offset="0.6" stop-color="#2A2A2A"/>
<stop offset="1" stop-color="#060606"/>
</linearGradient>
<linearGradient id="paint7_linear_787_10" x1="1091" y1="2" x2="1091" y2="365" gradientUnits="userSpaceOnUse">
<stop offset="0.6" stop-color="#2A2A2A"/>
<stop offset="1" stop-color="#060606"/>
</linearGradient>
</defs>
</svg>
